<?xml version="1.0" encoding="utf-8"?>
<!-- Generator: Adobe Illustrator 17.0.0, SVG Export Plug-In . SVG Version: 6.00 Build 0)  -->
<!DOCTYPE svg PUBLIC "-//W3C//DTD SVG 1.1//EN" "http://www.w3.org/Graphics/SVG/1.1/DTD/svg11.dtd">
<svg version="1.1" id="Layer_1" xmlns="http://www.w3.org/2000/svg" xmlns:xlink="http://www.w3.org/1999/xlink" x="0px" y="0px"
	 width="281px" height="163px" viewBox="-66.064 -28.501 281 163" enable-background="new -66.064 -28.501 281 163"
	 xml:space="preserve">
<g>
	<rect x="54.659" y="0.873" width="19.93" height="54.847"/>
	<rect x="54.659" y="0.873" width="19.93" height="54.847"/>
	<g>
		<path d="M107.376,23.423h30.769c-0.029,1.74-0.052,3.425-0.117,5.063l-11.611-2.377l-0.837,2.008
			c-3.072,7.373-5.408,16.814-7.011,26.827c-3.354,1.088-6.872,1.649-10.319,1.649c-16.73,0-30.26-10.33-30.26-27.933
			C77.99,10.766,91.156,0,108.394,0c9.529,0,22.623,4.728,26.914,14.112l-18.621,6.838c-1.528-2.764-4.364-4.219-7.565-4.219
			c-7.128,0-11.056,6.11-11.056,12.729c0,6.038,3.783,11.712,10.257,11.712c3.127,0,7.128-1.455,8.073-4.802h-9.02V23.423z"/>
	</g>
	<g>
		<polygon points="3.783,61.189 3.783,103.995 21.73,103.995 21.73,97.678 10.452,97.678 10.452,61.189 		"/>
		<g>
			<path d="M25.313,82.592c0,8.61,7.024,15.788,15.695,15.788c8.672,0,15.696-7.178,15.696-15.788
				c0-8.667-6.918-15.789-15.696-15.789C32.231,66.803,25.313,73.925,25.313,82.592 M63.374,82.646
				c0,12.311-10.142,22.049-22.366,22.049c-12.222,0-22.365-9.738-22.365-22.049c0-12.249,10.133-22.158,22.365-22.158
				C53.241,60.488,63.374,70.397,63.374,82.646"/>
		</g>
		<polygon points="77.514,103.994 70.845,103.994 70.845,67.505 60.977,67.505 60.977,61.189 87.491,61.189 87.491,67.505 
			77.514,67.505 		"/>
		<g>
			<path d="M108.519,71.659l-0.554-0.956c-1.498-2.586-3.147-3.9-6.133-3.9c-3.153,0-5.719,2.22-5.719,5.263
				c0,1.329,0.665,2.336,1.765,3.213c1.131,0.9,2.6,1.563,4.009,2.196l2.702,1.184c5.32,2.323,10.446,5.216,10.446,12.407
				c0,7.733-6.248,13.629-13.907,13.629c-7.089,0-12.381-4.588-13.778-11.367l-0.197-0.96l6.556-1.831l0.17,1.189
				c0.537,3.74,3.373,6.653,7.14,6.653c3.901,0,7.346-2.963,7.346-6.882c0-3.972-2.971-5.343-6.918-7.138l-2.484-1.076
				c-4.763-2.155-9.52-4.838-9.52-11.379c0-7.039,5.995-11.416,12.498-11.416c4.949,0,9.152,2.538,11.503,6.867l0.466,0.859
				L108.519,71.659z"/>
			<path d="M22.253,33.535v9.092h2.255c3.273,0,8.001-0.073,8.001-4.583c0-4.582-5.091-4.509-8.293-4.509H22.253z M22.253,21.968
				h1.818c2.91,0,6.183-0.29,6.183-4.074c0-4.074-3.709-3.782-6.619-3.782h-1.382C22.253,14.112,22.253,21.968,22.253,21.968z
				 M3.777,55.72V0.873h23.204c10.619,0,21.458,2.546,21.458,15.203c0,4.801-2.4,9.529-7.201,11.057v0.436
				c5.964,2.11,9.747,6.474,9.747,13.021c0,11.274-10.474,15.13-20.076,15.13H3.777z"/>
		</g>
		<g>
			<path d="M107.376,23.423h30.769c-0.029,1.74-0.052,3.425-0.117,5.063l-11.611-2.377l-0.837,2.008
				c-3.072,7.373-5.408,16.814-7.011,26.827c-3.354,1.088-6.872,1.649-10.319,1.649c-16.73,0-30.26-10.33-30.26-27.933
				C77.99,10.766,91.156,0,108.394,0c9.529,0,22.623,4.728,26.914,14.112l-18.621,6.838c-1.528-2.764-4.364-4.219-7.565-4.219
				c-7.128,0-11.056,6.11-11.056,12.729c0,6.038,3.783,11.712,10.257,11.712c3.127,0,7.128-1.455,8.073-4.802h-9.02V23.423z"/>
			<path fill="#FFFFFF" d="M119.57,104.164c-0.489-3.981-0.773-8.504-0.853-13.353l14.11,2.273
				c-0.741,4.576-1.273,8.926-1.593,12.915L119.57,104.164z M118.712,85.249c0.271-19.199,3.452-41.903,9.427-56.237l24.957,5.107
				c-9.478,15.454-15.87,35.638-19.284,53.401L118.712,85.249z"/>
		</g>
		<polygon points="135.546,101.813 136.599,101.813 136.599,104.553 137.02,104.553 137.02,101.813 138.071,101.813 
			138.071,101.441 135.546,101.441 		"/>
		<g>
			<path d="M141.43,104.554v-3.112h-0.599l-0.884,2.631h-0.008l-0.889-2.631h-0.601v3.112h0.405v-1.838
				c0-0.091-0.008-0.486-0.008-0.771h0.008l0.877,2.609h0.416l0.875-2.613h0.009c0,0.289-0.009,0.684-0.009,0.775v1.838H141.43z"/>
		</g>
		<polygon points="3.783,61.189 3.783,103.995 21.73,103.995 21.73,97.678 10.452,97.678 10.452,61.189 		"/>
		<g>
			<path d="M25.313,82.592c0,8.61,7.024,15.788,15.695,15.788c8.672,0,15.696-7.178,15.696-15.788
				c0-8.667-6.918-15.789-15.696-15.789C32.231,66.803,25.313,73.925,25.313,82.592 M63.374,82.646
				c0,12.311-10.142,22.049-22.366,22.049c-12.222,0-22.365-9.738-22.365-22.049c0-12.249,10.133-22.158,22.365-22.158
				C53.241,60.488,63.374,70.397,63.374,82.646"/>
		</g>
		<polygon points="77.514,103.994 70.845,103.994 70.845,67.505 60.977,67.505 60.977,61.189 87.491,61.189 87.491,67.505 
			77.514,67.505 		"/>
		<g>
			<path d="M108.519,71.659l-0.554-0.956c-1.498-2.586-3.147-3.9-6.133-3.9c-3.153,0-5.719,2.22-5.719,5.263
				c0,1.329,0.665,2.336,1.765,3.213c1.131,0.9,2.6,1.563,4.009,2.196l2.702,1.184c5.32,2.323,10.446,5.216,10.446,12.407
				c0,7.733-6.248,13.629-13.907,13.629c-7.089,0-12.381-4.588-13.778-11.367l-0.197-0.96l6.556-1.831l0.17,1.189
				c0.537,3.74,3.373,6.653,7.14,6.653c3.901,0,7.346-2.963,7.346-6.882c0-3.972-2.971-5.343-6.918-7.138l-2.484-1.076
				c-4.763-2.155-9.52-4.838-9.52-11.379c0-7.039,5.995-11.416,12.498-11.416c4.949,0,9.152,2.538,11.503,6.867l0.466,0.859
				L108.519,71.659z"/>
			<path d="M22.253,33.535v9.092h2.255c3.273,0,8.001-0.073,8.001-4.583c0-4.582-5.091-4.509-8.293-4.509H22.253z M22.253,21.968
				h1.818c2.91,0,6.183-0.29,6.183-4.074c0-4.074-3.709-3.782-6.619-3.782h-1.382C22.253,14.112,22.253,21.968,22.253,21.968z
				 M3.777,55.72V0.873h23.204c10.619,0,21.458,2.546,21.458,15.203c0,4.801-2.4,9.529-7.201,11.057v0.436
				c5.964,2.11,9.747,6.474,9.747,13.021c0,11.274-10.474,15.13-20.076,15.13H3.777z"/>
		</g>
		<polygon points="135.546,101.813 136.599,101.813 136.599,104.553 137.02,104.553 137.02,101.813 138.071,101.813 
			138.071,101.441 135.546,101.441 		"/>
		<g>
			<path d="M141.43,104.554v-3.112h-0.599l-0.884,2.631h-0.008l-0.889-2.631h-0.601v3.112h0.405v-1.838
				c0-0.091-0.008-0.486-0.008-0.771h0.008l0.877,2.609h0.416l0.875-2.613h0.009c0,0.289-0.009,0.684-0.009,0.775v1.838H141.43z"/>
		</g>
	</g>
</g>
</svg>
