<?xml version="1.0" encoding="utf-8"?>
<!-- Generator: Adobe Illustrator 17.0.0, SVG Export Plug-In . SVG Version: 6.00 Build 0)  -->
<!DOCTYPE svg PUBLIC "-//W3C//DTD SVG 1.1//EN" "http://www.w3.org/Graphics/SVG/1.1/DTD/svg11.dtd">
<svg version="1.1" id="Layer_1" xmlns="http://www.w3.org/2000/svg" xmlns:xlink="http://www.w3.org/1999/xlink" x="0px" y="0px"
	 width="281px" height="163px" viewBox="-49.043 -32.25 281 163" enable-background="new -49.043 -32.25 281 163"
	 xml:space="preserve">
<g>
	<g>
		<path fill="#FFFFFF" d="M182.589,68.584c0,1.283-1.043,2.329-2.325,2.329c-0.624,0-1.207-0.245-1.648-0.685
			c-0.438-0.44-0.681-1.023-0.681-1.644c0-0.624,0.243-1.207,0.681-1.647c0.441-0.439,1.024-0.682,1.648-0.682
			c0.621,0,1.205,0.243,1.643,0.682C182.348,67.377,182.589,67.96,182.589,68.584 M180.264,65.977c-1.439,0-2.606,1.17-2.606,2.607
			c0,0.694,0.269,1.349,0.763,1.842c0.493,0.493,1.145,0.764,1.843,0.764c0.695,0,1.349-0.271,1.84-0.764
			c0.495-0.493,0.766-1.148,0.766-1.842c0-0.696-0.271-1.352-0.766-1.844C181.613,66.248,180.959,65.977,180.264,65.977"/>
		<path fill="#FFFFFF" d="M179.846,67.319v0.942c0,0,0.979,0.066,0.979-0.465C180.825,67.18,179.846,67.315,179.846,67.319
			 M179.847,68.86v1.497h-0.635V66.79c0.784,0,2.162-0.207,2.162,0.991c0,0.763-0.564,0.962-0.564,0.962l0.762,1.614h-0.631
			l-0.73-1.497C180.211,68.86,179.847,68.86,179.847,68.86z"/>
		<path fill="#FFFFFF" d="M137.804,56.047v-6.039v-4.929c0,0-0.156-4.978-5.153-4.978c-3.132,0-5.153,2.765-5.153,4.978
			c0,3.524,3.227,4.98,5.153,4.98c1.153,0,1.926-0.2,3.644-1.407c0,4.324-0.051,6.854,0,6.841c-1.145,0.303-1.564,0.542-3.644,0.542
			c-6.351,0-11.336-5.019-11.336-10.956c0-7.547,6.767-10.957,11.336-10.957c5.726,0,11.337,4.417,11.337,10.957
			c0,4.026,0.01,3.924,0.01,5.031v5.945L137.804,56.047z"/>
		<path fill="#FFFFFF" d="M92.218,45.959V34.674l6.248-2.717v15.266c0,11.976-19.886,11.976-19.886,0.203v-6.773l6.246-2.759v8.123
			C84.826,51.654,92.218,51.595,92.218,45.959"/>
		<path fill="#FFFFFF" d="M120.327,56.295c0,0-3.159,0.194-5.205-0.906c-3.748-2.013-3.333-7.896-3.333-7.896V36.024h-4.059v-6.038
			h4.059v-3.722l6.247-2.818v6.741h4.061v5.937h-4.061v11.82c0,0,0.106,2.816,2.291,2.816V56.295z"/>
	</g>
	<rect x="100.13" y="34.663" fill="#FFFFFF" width="6.245" height="21.371"/>
	<polygon fill="#FFFFFF" points="100.13,33.006 106.376,32.963 106.376,28.578 100.13,31.296 	"/>
	<g>
		<path fill="#FFFFFF" d="M157.013,33.208v6.34c-4.582,0-4.373,2.716-4.373,5.23v11.27h-6.247V41.157
			C146.393,33.409,152.744,33.208,157.013,33.208"/>
		<path fill="#FFFFFF" d="M145.285,12.291c-0.197-0.425-1.006-0.485-1.903-0.171l-0.254-0.553l0.266-0.123l-0.22-7.679l-5.691-5.159
			l-0.268,0.123l-0.255-0.553c0.823-0.479,1.303-1.13,1.107-1.556c-0.224-0.489-1.252-0.494-2.296-0.012
			c-1.045,0.481-1.71,1.265-1.484,1.754c0.195,0.426,1.003,0.482,1.901,0.169l0.255,0.555l-4.756,2.189l-0.254-0.553
			c0.82-0.481,1.303-1.134,1.108-1.557c-0.227-0.49-1.253-0.493-2.298-0.012c-1.045,0.48-1.709,1.265-1.484,1.753
			c0.195,0.425,1.003,0.483,1.901,0.17l0.257,0.555l-4.576,2.108l-0.255-0.553c0.82-0.481,1.302-1.134,1.105-1.558
			c-0.224-0.488-1.252-0.494-2.296-0.013c-1.046,0.481-1.71,1.266-1.486,1.754c0.197,0.426,1.007,0.483,1.903,0.171l0.255,0.553
			l-0.564,0.262l-1.729,4.847L59.322,38.35c-3.031-2.689-8.176-3.256-12.931-1.067c-6.006,2.766-9.097,8.87-6.904,13.632
			c2.195,4.764,8.843,6.384,14.848,3.617c4.33-1.994,7.131-5.722,7.542-9.432l3.17-1.47c0.216-0.088,2.119-0.761,4.285,1.409
			c1.267,2.836,2.393,5.892,1.673,7.814c-0.131,0.348-0.529,1.408-2.648,2.354c-1.416,0.628-2.653,0.906-4.217,1.26
			c-2.324,0.523-5.22,1.176-9.683,3.232c-3.881,1.787-6.064,5.233-8.379,8.883c-3.094,4.883-6.602,10.415-15.268,14.407
			c-2.311,1.066-4.442,1.209-6.516,0.444C17.93,81.08,13.015,70.411,11.402,66.907C8.114,59.763,3.998,49.57,6.23,43.53
			c0.682-1.85,1.958-3.183,3.899-4.078c8.792-4.049,15.059-3.746,20.585-3.477c4.044,0.194,7.864,0.377,11.617-1.35
			c4.461-2.054,6.37-3.609,7.906-4.858c1.016-0.826,1.752-1.425,3.121-2.054c1.829-0.842,3.601-0.936,5.273-0.284
			c2.527,0.99,4.272,3.388,5.063,5.303l5.144-2.129c-1.594-3.849-4.651-6.972-8.178-8.355c-3.089-1.21-6.42-1.068-9.631,0.409
			c-2.006,0.925-3.173,1.874-4.301,2.793c-1.361,1.106-2.902,2.36-6.727,4.122c-2.513,1.156-5.385,1.017-9.017,0.841
			C25.123,30.13,17.831,29.779,7.8,34.398c-3.302,1.522-5.587,3.944-6.791,7.205c-2.916,7.888,1.322,18.909,5.338,27.63
			c3.216,6.986,8.376,16.595,16.021,19.422c3.476,1.282,7.102,1.077,10.77-0.612c10.158-4.679,14.308-11.225,17.641-16.483
			c2.021-3.187,3.619-5.707,6.006-6.807c3.933-1.81,6.401-2.366,8.578-2.859c1.716-0.386,3.337-0.75,5.256-1.603
			c2.823-1.256,4.706-3.102,5.599-5.488c1.701-4.546-0.644-9.574-2.713-14.01l-0.414-0.896l52.998-24.583l4.827,1.878l0.563-0.262
			l0.254,0.554c-0.819,0.479-1.303,1.131-1.108,1.558c0.226,0.488,1.254,0.492,2.297,0.012c1.045-0.483,1.711-1.267,1.487-1.754
			c-0.197-0.425-1.006-0.484-1.904-0.171l-0.254-0.553l4.578-2.107l0.253,0.553c-0.819,0.479-1.302,1.129-1.107,1.557
			c0.226,0.485,1.253,0.493,2.297,0.011c1.047-0.481,1.71-1.266,1.484-1.754c-0.194-0.424-1.004-0.483-1.901-0.17l-0.255-0.553
			l4.756-2.189l0.254,0.552c-0.821,0.478-1.304,1.131-1.108,1.557c0.223,0.488,1.253,0.492,2.298,0.012
			C144.843,13.564,145.509,12.779,145.285,12.291"/>
		<path fill="#FFFFFF" d="M140.603,88.739c0,0-3.047,0.177-5.032-0.906c-3.535-1.924-3.22-8.866-3.22-8.866V66.794h-3.922v-6.09
			h3.922v-2.599h6.05l-0.012,2.798h3.923v5.992h-3.923v13.494c0,0,0.099,2.818,2.214,2.818L140.603,88.739L140.603,88.739z"/>
		<path fill="#FFFFFF" d="M90.692,88.308c-5.274,6.024-10.901,5.942-13.012,5.942c-10.727,0-17.285-9.107-17.285-17.285
			c0-7.385,4.942-15.4,14.583-16.997c6.064-1.009,11.958,1.305,16.066,5.92c-1.318,0.967-4.308,3.252-4.308,3.252
			c-3.252-2.988-5.538-3.986-9.056-3.986c-2.814,0-11.812,2.315-11.812,11.811c0,6.245,4.954,11.855,11.812,11.814
			c5.143-0.029,7.385-2.667,8.792-3.987L90.692,88.308z"/>
		<path fill="#FFFFFF" d="M123.196,76.234v12.294h6.038V74.426c0-11.976-19.22-11.976-19.22-0.204v14.306h6.038V76.036
			C116.052,70.601,123.196,70.5,123.196,76.234"/>
		<path fill="#FFFFFF" d="M176.121,65.789v6.341c-4.429,0-4.227,2.715-4.227,5.23v11.181h-6.036V73.739
			C165.858,66.679,172.069,65.789,176.121,65.789"/>
		<path fill="#FFFFFF" d="M149.414,72.995c0,0-2.434,2.203-1.275,5.161l6.44-6.437C154.579,71.719,152.199,70.499,149.414,72.995
			 M151.166,83.131c-0.043,0.028,1.422,0.278,1.842,0.278c3.2,0,4.779-2.265,4.779-2.265s5.252,0.018,6.004,0.002
			c0,0-1.392,3.62-3.891,5.23c-9.626,6.209-15.717-1.481-16.91-3.497c-1.806-3.042-2.782-11.818,4.041-15.605
			c10.271-5.697,15.994,4.207,15.994,4.207L151.166,83.131z"/>
		<path fill="#FFFFFF" d="M94.599,72.995c0,0-2.435,2.203-1.276,5.161l6.44-6.437C99.763,71.719,97.385,70.499,94.599,72.995
			 M108.976,81.146c0,0-1.393,3.62-3.891,5.23c-9.627,6.209-15.716-1.481-16.91-3.497c-1.805-3.042-2.782-11.818,4.042-15.605
			c10.27-5.697,15.994,4.207,15.994,4.207L96.35,83.131c-0.04,0.028,1.425,0.278,1.843,0.278c3.199,0,4.78-2.265,4.78-2.265
			L108.976,81.146z"/>
	</g>
</g>
</svg>
