<?xml version="1.0" encoding="utf-8"?>
<!-- Generator: Adobe Illustrator 17.0.0, SVG Export Plug-In . SVG Version: 6.00 Build 0)  -->
<!DOCTYPE svg PUBLIC "-//W3C//DTD SVG 1.1//EN" "http://www.w3.org/Graphics/SVG/1.1/DTD/svg11.dtd">
<svg version="1.1" id="Layer_1" xmlns="http://www.w3.org/2000/svg" xmlns:xlink="http://www.w3.org/1999/xlink" x="0px" y="0px"
	 width="281px" height="163px" viewBox="-52.313 -66.236 281 163" enable-background="new -52.313 -66.236 281 163"
	 xml:space="preserve">
<g>
	<g>
		<path d="M128.508,29.117c-7.218,1.193-10.678-3.162-10.678-3.162c-0.775-1.074-1.312-1.312-1.312-1.312
			c-1.312-0.358-1.969,1.133-1.969,1.133c-1.431,2.625-3.937,3.162-3.937,3.162c-6.382,0.835-6.562-0.119-6.562-0.119
			c-1.073-1.432-2.803-0.239-2.803-0.239c-4.355,0.179-5.489-0.119-5.489-0.119c-0.655-0.239-2.207-1.372-2.207-1.372
			c-0.477-0.895-1.849-0.716-1.849-0.716l-5.667-0.06c-0.596,0-1.312,0.418-1.312,0.418l-1.969,1.253
			c-1.014,0.894-2.028,0.298-2.028,0.298c-0.656-0.179-1.073-0.06-1.073-0.06c-1.373,0.418-2.745,0-2.745,0
			c-0.894-0.537-1.849-0.537-1.849-0.537c-1.074,0-2.147,0.179-2.147,0.179c-3.102,0.597-3.818-1.073-3.818-1.073
			c-1.253-1.969-2.923-3.341-2.923-3.341c-1.73-1.491-2.327,0.835-2.327,0.835c-0.954,2.267-2.505,3.042-2.505,3.042
			c-3.341,1.492-6.264-0.417-6.264-0.417c-1.431-1.074-2.207,0.06-2.207,0.06c-1.372,1.312-2.565,0.894-2.565,0.894
			c-2.505,0.299-9.902-0.119-9.902-0.119C37.418,27.864,37,26.97,37,26.97c-1.193-0.836-1.849-0.239-1.849-0.239
			c-4.772,2.804-10.32,0.954-10.32,0.954c-2.088-0.715-0.656-2.326-0.656-2.326c1.134-1.849,0.776-2.565,0.776-2.565
			c-0.597-1.909-2.804,0-2.804,0c-1.312,1.014-2.326,1.312-2.326,1.312c-2.804,0.955-5.608-0.417-5.608-0.417
			c-2.088-1.372-3.281,3.042-3.281,3.042c-0.477,1.73-2.744,1.432-2.744,1.432c-3.46,0.119-6.085-1.253-6.085-1.253
			c-3.161-1.849-0.775-8.053-0.775-8.053c1.133-3.579-0.358-8.172-0.358-8.172c-0.716-1.79-0.656-4.176-0.656-4.176
			c0.239-6.145,3.878-6.085,3.878-6.085c4.533-0.179,10.379-0.119,10.379-0.119c4.593,0.119,3.639,4.533,3.639,4.533
			s-0.477,3.043,0.656,4.355c0,0,1.372,1.67,1.849-0.835c0,0-0.119-2.863,0.06-3.52c0,0,0.716-2.684,4.355-3.996
			c0,0,2.744-1.014,9.604-0.418c0,0,1.133-0.06,2.266,0.776c0,0,0.597,0.716,2.088-0.12c0,0,0.836-0.596,1.909-0.537
			c0,0,6.92,0,12.468,0.657c0,0,2.028,0.238,2.982,1.133c0,0,0.955,0.775,1.671,0.119c0,0,1.431-1.193,5.13-1.193
			c0,0,2.207-0.059,4.414,0.119c0,0,1.551,0.299,2.625,1.432c0,0,0.776,0.776,1.074-0.239c0,0-0.179-1.55,3.46-1.491
			c0,0,2.445-0.059,5.07,0.179c0,0,2.923,0.06,1.849,2.923c0,0-0.775,0.955-0.715,6.681c0,0-0.239,1.909,1.073,0.418
			c0,0,3.043-3.997,2.744-5.488c0,0,0.06-4.713,4.176-4.892c0,0,7.397,0.06,11.692,0.179c0,0,1.909,0.179,1.67,2.208
			c0,0-0.298,1.729,0.776,1.55c0,0,0.835,0,1.312-1.073c0,0,0.716-2.029,3.281-2.506c0,0,5.13-0.417,12.348,0.239
			c0,0,5.667,0.895,7.934,3.34c0,0,0.954,1.074,1.312,0c0,0,0.418-3.102,5.548-3.4c0,0,12.825-0.835,18.015,4.057
			c0,0,0.656,0.775,1.432,0.119c0,0,4.713-4.892,11.811-3.997c0,0,7.994,0.656,9.366,7.039c0,0,0.842,2.438-0.597,4.176
			c0,0-0.947,0.984,0.358,2.386c0,0,2.58,2.774-1.611,9.425c0,0-6.218,9.41-20.803,3.013c0,0-0.985-0.314-0.94-1.387l-0.089-1.611
			c0,0,0.178-1.074-0.672-0.984c0,0-0.581,0.268-1.073,0.895c0,0-3.39,4.576-9.929,5.527c-2.572,0.374-7.804,0.242-9.354-0.695
			C130.805,29.401,129.985,28.67,128.508,29.117"/>
		<path fill="#FFFFFF" d="M5.743,2.81c0,0-3.639,0.119-1.253,4.235c0,0,0.418,0.716,0.478,2.566c0,0,0.656,6.8,0.179,10.439
			c0,0-1.074,1.968,0.119,2.803c0,0,1.312,0.716,3.877,0.299c0,0,1.551,0,0.776-2.625c0,0-0.835-3.281,0.119-6.502
			c0,0,0.537-1.909,1.969,0.119c0,0,2.684,4.653,3.281,5.667c0,0,0.417,1.133,2.266,0.895c0,0,2.207,0.179,2.386,0.06
			c0,0,1.373,0.417,2.029-1.313c0,0,1.551-3.281,3.877-4.533c0,0,1.432-0.835,1.79,0.715c0,0,0.716,1.432,0.238,4.832
			c0,0-1.074,2.804,0.895,2.864c0,0,2.506,0.358,5.011-0.179c0,0,1.193-0.239,0.954-1.73c0,0-0.238-7.695,0-12.945
			c0,0,0.18-1.432,0.537-2.088c0,0,1.85-3.34-0.775-3.818c0,0-4.951-0.298-7.815,0.06c0,0-1.491-0.06-1.014,3.4
			c0,0,0.179,0.835-1.491,2.446c0,0-1.969,2.386-4.474,5.25c0,0-1.014,1.252-1.611-0.239c0,0-2.326-3.52-2.803-5.369
			c0,0,1.014-4.951-0.657-5.369C14.631,2.75,13.558,2.214,5.743,2.81"/>
		<path fill="#FFFFFF" d="M41.117,3.705c0,0-4.116-0.06-2.267,3.997c0,0-0.358,7.635-0.059,12.169c0,0-0.358,3.818,3.459,3.698
			c0,0,7.517,0.179,11.215,0.06c0,0,2.744-0.06,1.193-2.148c0,0-1.252-1.789-4.354-1.372c0,0-4.534,0.418-4.594-1.312
			c0,0-0.596-1.79,1.611-2.088c0,0,1.849-0.119,4.533-0.06c0,0,2.327,0.06,2.208-1.849c0,0,0.357-1.551-2.386-1.431h-3.878
			c0,0-2.446-0.06-2.267-2.207c0,0-0.238-1.79,2.327-1.79l4.056,0.06c0,0,2.744,0.298,2.983-2.625c0,0,0.238-3.341-3.102-3.281
			L41.117,3.705z"/>
		<path fill="#FFFFFF" d="M61.28,4.062c0,0-4.534-0.418-2.326,5.19c0,0,0.298,0.954,0.059,3.878c0,0-0.537,6.859-0.298,8.888
			c0,0-0.179,1.133,1.67,1.073c0,0,1.671,0.358,1.909-1.372c0,0,0.477-2.982,0.298-5.547c0,0-0.596-2.148,1.79-0.478
			c0,0,3.4,2.983,5.428,5.429c0,0,1.85,2.088,4.116,2.088c0,0,4.176,0.835,3.579-3.997c0,0-0.178-7.099-0.119-11.692
			c0,0-0.358-1.312,1.134-2.028c0,0,0.596-0.418,0.477-1.074c0,0-0.06-0.537-1.253-0.477c0,0-2.207-0.119-3.877,0
			c0,0-2.386-0.179-0.656,2.446c0,0,0.894,2.267,0.238,7.218c0,0-0.238,2.684-2.028,0.656c0,0-2.684-4.116-5.25-7.099
			c0,0-0.715-0.537-0.477-2.088c0,0,0.597-1.133-1.312-1.133C64.382,3.943,61.996,4.003,61.28,4.062"/>
		<path fill="#FFFFFF" d="M89.376,6.21c0,0-0.716-2.446,1.014-2.386c0,0,6.502,0,7.576,0.119c0,0,1.79-0.656,1.074,3.341
			c0,0,1.969,3.519,3.46,9.842c0,0,1.073,3.162,1.909,5.071c0,0,0.477,0.716-0.239,0.775c0,0-2.267,0.239-5.011-0.059
			c0,0-0.596-0.06-0.954-0.418l-1.193-1.312c0,0-0.477-0.656-1.372-0.537c0,0-5.548-0.358-8.352-0.179c0,0-1.133-0.179-1.252,0.776
			c0,0-0.358,1.014-0.478,1.431c0,0,0.12,0.477-0.835,0.418c0,0-1.73,0.238-4.354,0c0,0-0.895,0-0.358-0.835
			c0,0,0.537-0.776,1.968-2.327c0,0,0.955-1.133,2.148-3.877C84.127,16.053,87.825,8.715,89.376,6.21"/>
		<path d="M90.271,14.204c0,0,0.835-1.253,1.491-1.909c0,0,0.955-1.29,1.551,0.298c0,0,0.776,1.551,0.836,2.386
			c0,0,0.286,0.791-1.015,0.776c0,0-1.193,0.119-2.744-0.298C90.39,15.457,89.372,15.419,90.271,14.204"/>
		<path fill="#FFFFFF" d="M110.433,4.062c0,0-3.698-0.418-3.281,3.639c0,0,0.597,4.832,0,9.664c0,0-1.074,5.189,0.776,5.667
			c0,0,1.252,0.835,3.221,1.014c0,0,2.028,0.238,2.326-1.79c0,0,0.179-0.835-0.059-1.968c0,0-0.597-2.506,0.716-1.909
			c0,0,2.386,0.298,5.786,2.445c0,0,5.965,3.341,9.067,3.341c0,0,0.656,0.06,1.193-0.358c0,0,1.67-0.954,0.418-2.207
			c0,0-1.969-1.611-5.787-3.46c0,0-1.733-0.719,0-1.61c0,0,2.293-1.271,2.923-3.162c0.06-0.179,1.313-6.323-4.831-8.53
			c0,0-2.148-0.716-5.817-0.776C117.084,4.062,110.433,4.062,110.433,4.062z"/>
		<path d="M115.802,8.954c0,0-1.998-0.209-1.879,1.7l0.149,1.67c0,0,0.03,1.611,2.386,1.879c0,0,2.297,0.12,4.087-0.238
			c0,0,2.535-0.298,2.952-2.476C123.497,11.489,124.184,8.894,115.802,8.954"/>
		<path fill="#FFFFFF" d="M132.326,8.954c0,0,0.626,0.358,0.626,1.924l0.448,10.424c0,0,0,2.774,3.758,2.64
			c0,0,15.525,0.85,16.867-10.067c0,0,0.626-9.306-9.485-9.753c0,0-3.937-0.09-7.74,0.626c0,0-0.447,0.135-0.984-0.044
			c0,0-2.103-0.761-3.49,0.626C132.326,5.33,130.805,6.941,132.326,8.954"/>
		<path d="M138.098,10.833l0.09,8.59c0,0-0.135,0.537,0.492,0.447c0,0,3.847-0.537,6.084-3.802c0,0,2.014-4.564-2.058-5.995
			c0,0-1.879-0.448-3.982-0.135C138.724,9.938,138.009,9.894,138.098,10.833"/>
		<path fill="#FFFFFF" d="M159.214,20.729c-1.389-0.376-3.018-0.256-3.667,1.066c0,0-0.985,1.968,3.042,2.236
			c0,0,8.679,1.03,12.08-0.67c0,0,3.31-1.611,2.684-6.13c0,0-0.224-2.281-3.49-2.55c0,0-0.716-0.134-3.624-0.134
			c0,0-4.563,0.224-4.921-1.969c0,0-0.85-3.176,2.908-4.384c0,0,2.237-0.537,3.982,0.044c0,0,1.118,0.359,1.253,1.611l0.134,1.745
			c0,0-0.134,1.298,1.566,1.253c0,0,1.789,0.223,1.7-2.237c0,0-0.045-1.477-0.358-2.148c0,0-1.253-3.668-5.682-3.982
			c0,0-5.682-0.626-8.59,1.522c0,0-3.311,2.371-2.55,6.353c0,0,0.984,4.921,6.129,5.055c0,0,4.25,0.045,5.548,0.224
			c0,0,2.326,0.045,1.163,2.013c0,0-1.163,2.326-6.174,1.79C162.347,21.437,161.47,21.34,159.214,20.729"/>
	</g>
</g>
</svg>
