<?xml version="1.0" encoding="utf-8"?>
<!-- Generator: Adobe Illustrator 17.0.0, SVG Export Plug-In . SVG Version: 6.00 Build 0)  -->
<!DOCTYPE svg PUBLIC "-//W3C//DTD SVG 1.1//EN" "http://www.w3.org/Graphics/SVG/1.1/DTD/svg11.dtd">
<svg version="1.1" id="Layer_1" xmlns="http://www.w3.org/2000/svg" xmlns:xlink="http://www.w3.org/1999/xlink" x="0px" y="0px"
	 width="281px" height="163px" viewBox="-28.25 -52.175 281 163" enable-background="new -28.25 -52.175 281 163"
	 xml:space="preserve">
<g>
	<g>
		<path fill="#FFFFFF" d="M14.496,31.608c0.577,0.335,0.667,0.834,0.667,1.204c0,0.083-0.004,0.16-0.008,0.226
			c-0.029,0.544-0.15,0.952-0.323,1.093c-0.076,0.062-0.246,0.108-0.478,0.123C14.408,33.246,14.434,32.769,14.496,31.608"/>
		<path fill="#FFFFFF" d="M185.143,29.862c0.683,0.305,0.737,0.879,0.737,1.249c0,0.035-0.001,0.068-0.002,0.098
			c-0.006,0.528-0.107,0.919-0.275,1.074c-0.092,0.086-0.277,0.135-0.495,0.167C185.121,31.424,185.128,30.975,185.143,29.862"/>
		<path d="M154.923,38.814c0.681-2.568,1.382-5.281,2.064-7.848c0.785,2.579,1.573,5.162,2.36,7.747
			C154.832,38.877,154.827,38.814,154.923,38.814"/>
		<path fill="#FFFFFF" d="M204.335,41.777c-0.088,3.291-0.18,6.695-0.231,10.509l-0.014,1.012l-1.788-2.675
			c-1.695-2.536-3.25-4.781-4.896-7.156c0,0-0.751-1.089-1.46-2.115c2.54-1.863,3.946-4.894,4.158-9.08l0.17,0.013
			c1.005,0.072,2.135,0.235,3.227,0.393c0,0,0.541,0.071,1.04,0.136C204.488,36.003,204.41,38.94,204.335,41.777 M92.225,8.627
			c-8.23,3.114-12.676,10.538-14.351,15.048c-1.715-4.234-6.763-13.527-17.034-18.316c-11.923-5.558-30.323,0.036-37.354,7.445
			c15.818-4.394,29.402-3,39.971,3.396c4.601,2.785,7.911,6.004,9.891,8.231c-7.457,0.298-14.139,0.22-20.959-0.244l-1.771-0.121
			l-0.001,0.04l-0.875-0.045c-8.727-0.451-18.522-1.797-19.611-1.95l-1.884-0.263l-0.07,1.901l-0.099,2.644
			c-2.666-5.235-8.675-6.425-11.094-6.894c-0.049-0.011-15.025-3.438-15.025-3.438l-0.098,2.051l-1.61,33.657l1.376,0.336
			c3.038,0.741,6.33,1.501,9.811,2.044l1.903,0.296c0,0,0.279-6.883,0.377-9.305c0.736,0.113,1.669,0.254,1.669,0.254
			c3.998,0.557,7.395-0.204,9.816-2.201c0.943-0.778,1.729-1.728,2.356-2.845l-0.585,15.75l1.597,0.168
			c6.53,0.685,14.071,1.4,20.488,1.504l1.71,0.027l0.036-1.71c0.052-2.557,0.149-6.78,0.184-7.227l0.055-1.904
			c-1.85-0.015-5.503-0.143-7.347-0.266c0,0-1.013-0.06-2.008-0.119c0.007-0.487,0.01-0.715,0.014-0.976
			c0.847,0.052,1.694,0.104,1.694,0.104c1.716,0.122,3.49,0.247,5.261,0.265l1.685,0.017c0,0,0.221-9.89,0.211-9.901
			c-0.5,0.05-8.608-0.579-8.608-0.579l0.026-0.955c0,0,13.402,1.069,13.761,1.084c-0.066,2.897-0.506,22.445-0.506,22.445
			l1.624,0.124c3.075,0.234,7.548,0.439,11.394,0.084l1.536-0.141c0,0,0.297-19.138,0.341-21.968
			c0.276-0.006,0.572-0.015,0.915-0.024l4.829-0.166l-0.036-1.635l0.064-7.352c0,0,2.285,5.39,2.138,6.405
			c-0.084,0.586-0.131,1.194-0.135,1.824c-0.001,0.028-0.001,0.054-0.001,0.082c0,2.815,1.115,5.227,3.101,6.995
			c-0.146,0.338-2.514,5.859-2.514,5.859L76,53.941l1.412,0.748c3.741,1.944,8.51,3.083,12.758,3.046
			c5.692-0.046,11.672-2.762,14.224-7.812l-0.709,6.395l2.254-0.392c2.481-0.431,8.638-1.412,10.471-1.657l1.383-0.185
			c0,0,0.278-3.737,0.405-5.433c0.016,0.042,2.022,5.053,2.022,5.053l6.922-1.064l0.356-0.932c0,0,0.89-2.27,1.554-3.96
			c0.081,1.424,0.267,4.667,0.267,4.667l1.8-0.212c3.604-0.4,6.488-0.612,10.253-0.843l1.778-0.109l-0.001-0.008l3.816-0.125
			c1.695-0.067,3.449-0.136,5.144-0.139l1.327-0.002c0,0,0.791-3.05,0.878-3.382c1.333-0.035,4.723-0.121,4.723-0.121
			s0.003-0.027,0.003-0.028c0.394-0.011,0.84-0.022,1.313-0.034c0.225,0.716,0.99,3.151,0.99,3.151l1.229,0.025l3.847,0.015
			c1.684-0.01,3.426-0.021,5.115,0.064l2.443,0.123l-0.06-0.199c3.271,0.11,6.714,0.363,9.088,0.56l1.833,0.153
			c0,0,0.044-2.889,0.06-3.935c1.082,1.761,2.674,4.351,2.674,4.351l0.861,0.081c3.737,0.336,7.839,0.833,12.19,1.476l3.461,0.512
			l-0.001,0.016l1.506,0.207c4.639,0.637,8.428,1.282,10.264,1.642l2.02,0.395l0.028-2.058c0.052-3.786,0.171-7.233,0.286-10.568
			c0.096-2.763,0.192-5.615,0.252-8.666c1.402,0.247,5.64,0.973,5.64,0.973l0.024-1.945l0.148-10.819l-1.4-0.281
			c-7.083-1.425-14.554-2.424-22.203-2.969l-1.815-0.129l-0.025,1.819l-0.047,3.359c-2.29-4.673-7.099-6.786-11.707-7.137
			c-4.284-0.341-8.773-0.58-13.334-0.71l-1.748-0.05l-0.019,1.745l-0.274,24.68c-1.256-4.063-2.509-8.065-3.732-11.969l-4.552-14.62
			l-1.267-0.007c-3.805,0-7.061,0.067-10.559,0.216l-1.259,0.053l-0.328,1.217c-1.313,4.888-2.767,10.038-4.174,15.019
			c-1.088,3.854-2.204,7.805-3.267,11.683c-0.323-3.492-0.636-7.045-0.941-10.519c-0.436-4.973-0.888-10.115-1.365-14.999
			l-0.166-1.699l-1.691,0.154l-10.569,0.966l-0.375,0.997c-0.9,2.344-1.808,4.968-2.688,7.506c-0.353,1.021-0.712,2.054-1.072,3.077
			c-0.306-0.823-0.611-1.65-0.912-2.469c-0.849-2.303-1.724-4.684-2.591-6.849l-0.508-1.271l-6.623,1.037
			c-1.72,0.279-3.671,0.594-4.021,0.619l-1.445,0.054l-0.195,1.475l-2.059,18.594c-0.68-3.801-4.233-5.615-4.233-5.615l4.149-10.953
			l-1.496-0.647c-3.975-1.717-7.032-2.399-10.552-2.357c-3.392,0.043-6.806,0.993-9.547,2.8c2.283-2.608,6.064-6.373,12.365-7.56
			C91.632,14.632,92.225,8.627,92.225,8.627"/>
		<path fill="#006BB6" d="M27.16,10.986C60.25,0.875,76.962,26.215,76.962,26.215S66.467-9.155,27.16,10.986"/>
		<path fill="#006BB6" d="M91.129,12.29c-0.025-0.141-0.008-1.056,0-1.196c-12.124,6.14-13.052,18.988-13.052,18.988
			s4.501-10.472,15.091-13.644C91.987,15.192,91.527,14.548,91.129,12.29"/>
		<path fill="#FFFFFF" d="M112.703,9.627c0,5.22-4.232,9.452-9.452,9.452S93.8,14.847,93.8,9.627s4.231-9.452,9.451-9.452
			S112.703,4.407,112.703,9.627"/>
		<path fill="#E03A3E" d="M110.995,9.828c-0.059,4.279-3.586,7.713-7.867,7.656c-4.279-0.059-7.712-3.588-7.653-7.867
			c0.058-4.279,3.585-7.713,7.865-7.654C107.619,2.021,111.053,5.549,110.995,9.828"/>
		<path fill="#FFFFFF" d="M97.822,9.698c1.801-3.086,4.765-4.925,8.327-4.87c0.042,0,0.074,0.033,0.115,0.045
			c-0.521-0.442-1.136-0.781-1.828-0.98c-2.736-0.786-5.624,0.904-6.449,3.773c-0.207,0.725-0.264,1.456-0.188,2.156
			C97.81,9.78,97.801,9.736,97.822,9.698"/>
		<path fill="#E03A3E" d="M49.646,25.776c0,0-0.192,4.995-0.226,7.52c-1.268,0.027-6.755-0.492-9.166-0.632
			c-0.018,1.347-0.135,2.735-0.154,4.082c2.888,0.12,5.882,0.53,8.772,0.561c-0.033,2.424-0.171,4.514-0.204,6.938
			c-2.89-0.029-5.778-0.353-8.667-0.477c-0.02,1.476-0.04,2.947-0.06,4.421c3.111,0.134,6.223,0.459,9.336,0.484
			c-0.043-0.111-0.198,7.378-0.198,7.378c-6.158-0.099-13.437-0.77-20.336-1.495l1.143-30.744
			C32.785,24.217,41.792,25.37,49.646,25.776"/>
		<path fill="#E03A3E" d="M52.264,25.901l-0.288,8.023c2.898,0.21,5.506,0.274,5.506,0.274l-0.508,22.287
			c3.379,0.258,7.587,0.412,11.105,0.088l0.343-22.078c0,0.009,4.918-0.121,5.682-0.169c0.041-2.95,0.032-5.26,0.072-8.209
			C66.796,26.435,59.699,26.407,52.264,25.901"/>
		<path fill="#006BB6" d="M200.518,21.429c-0.043,3.131-0.084,6.011-0.128,9.142c1.881,0.135,4.009,0.546,5.888,0.738
			c-0.104,7.615-0.36,13.384-0.463,21c5.219,0.716,8.926,1.377,10.36,1.658c0.104-7.616,0.472-13.619,0.575-21.233
			c0.001-0.03,5.531,0.947,5.628,1.028c0.042-3.13,0.085-6.262,0.128-9.393C215.182,22.896,207.854,21.952,200.518,21.429"/>
		<path fill="#E03A3E" d="M13.511,35.927c-0.322-0.049-0.644-0.1-0.967-0.149c0.113-2.105,0.227-4.211,0.34-6.317
			c0.308,0.049,0.617,0.098,0.926,0.144c1.612,0.244,3.178,1.221,3.054,3.525C16.725,35.734,15.095,36.167,13.511,35.927
			 M16.618,21.18L3.569,18.194L2.027,50.436c3.34,0.814,6.403,1.507,9.668,2.015l0.376-9.306c1.153,0.179,2.383,0.39,3.538,0.547
			c5.68,0.789,11.531-1.102,12.032-10.432C28.085,24.999,22.681,22.355,16.618,21.18"/>
		<path fill="#006BB6" d="M78.197,53.163c3.496,1.817,8.03,2.887,11.951,2.853c6.737-0.054,13.74-4.082,13.797-11.499
			c0.038-5.283-3.409-7.762-8.192-8.765c-0.853-0.183-1.704-0.362-2.556-0.545c-0.868-0.197-2.271-0.347-2.263-1.507
			c0.01-1.275,1.462-1.659,2.452-1.672c2.435-0.028,4.557,0.49,6.893,1.364c0.924-2.49,1.848-4.982,2.772-7.472
			c-3.373-1.458-6.298-2.259-9.85-2.217c-6.776,0.086-13.539,4.154-13.594,11.535c-0.037,4.864,3.66,7.5,8.074,8.26
			c0.757,0.134,1.513,0.266,2.268,0.396c1.034,0.199,2.517,0.309,2.507,1.711c-0.011,1.403-1.763,1.579-2.88,1.585
			c-2.602,0.021-5.572-0.836-7.767-2.44C80.673,47.351,79.333,50.568,78.197,53.163"/>
		<path fill="#006BB6" d="M125.886,51.092c1.475-3.846,2.949-7.44,4.426-11.281c0.232,3.68,0.376,7.006,0.61,10.684
			c3.677-0.409,6.632-0.623,10.337-0.851c-0.959-9.801-1.784-20.313-2.742-30.111c-3.162,0.272-6.324,0.564-9.487,0.867
			c-1.775,4.624-3.549,10.249-5.324,14.877c-1.713-4.283-3.426-9.312-5.137-13.59c-3.201,0.458-8.905,1.453-9.49,1.464
			c-1.096,9.988-2.346,21.092-3.442,31.081c2.521-0.437,8.682-1.418,10.538-1.667c0.284-3.729,0.568-7.71,0.853-11.44
			c1.424,3.557,2.848,7.115,4.272,10.673C122.097,51.692,124.939,51.243,125.886,51.092"/>
		<path fill="#006BB6" d="M184.337,34.191c-0.326-0.024-0.651-0.047-0.976-0.066c0.028-2.078,0.056-4.157,0.084-6.237
			c0.312,0.022,0.624,0.041,0.936,0.064c1.629,0.111,3.239,1.002,3.209,3.28C187.554,33.801,185.936,34.301,184.337,34.191
			 M193.488,40.825c2.814-1.263,4.844-3.992,4.917-9.396c0.111-8.163-5.656-11.643-11.489-12.088
			c-4.415-0.351-8.835-0.58-13.253-0.706c-0.14,10.365-0.195,19.852-0.334,30.218c3.3,0.093,6.926,0.345,9.811,0.585
			c0.039-2.916,0.083-5.081,0.122-7.999c1.889,3.045,3.429,5.561,5.317,8.651c4.064,0.365,8.226,0.887,12.287,1.487
			C198.324,47.774,196.031,44.53,193.488,40.825"/>
		<path fill="#006BB6" d="M154.915,38.814c0.681-2.568,1.382-5.281,2.064-7.847c0.786,2.578,1.574,5.161,2.36,7.746
			C154.826,38.877,154.82,38.813,154.915,38.814 M162.119,18.415c-3.924,0-7.133,0.071-10.486,0.214
			c-2.7,10.048-5.882,20.802-8.58,30.897c2.999-0.057,6.045-0.261,9.044-0.265c0.277-1.062,0.593-2.294,0.871-3.351l4.585-0.117
			c-0.098-0.042,4.04-0.129,4.04-0.129c0.117,0.393,0.483,1.449,1.011,3.207c3.002,0.071,6.005-0.072,9.008,0.08
			C168.367,38.304,165.085,28.073,162.119,18.415"/>
	</g>
	<path fill="#FFFFFF" d="M218.861,53.595v0.534h0.691v1.918h0.619v-1.918h0.722v-0.534H218.861z M223.158,53.595l-0.546,1.511
		h-0.013l-0.545-1.511h-0.892v2.452h0.564v-1.918h0.013l0.678,1.918h0.376l0.68-1.918h0.012v1.918h0.564v-2.452H223.158z"/>
</g>
</svg>
