<?xml version="1.0" encoding="utf-8"?>
<!-- Generator: Adobe Illustrator 17.0.0, SVG Export Plug-In . SVG Version: 6.00 Build 0)  -->
<!DOCTYPE svg PUBLIC "-//W3C//DTD SVG 1.1//EN" "http://www.w3.org/Graphics/SVG/1.1/DTD/svg11.dtd">
<svg version="1.1" id="Layer_1" xmlns="http://www.w3.org/2000/svg" xmlns:xlink="http://www.w3.org/1999/xlink" x="0px" y="0px"
	 width="281px" height="163px" viewBox="-44.941 -9.75 281 163" enable-background="new -44.941 -9.75 281 163"
	 xml:space="preserve">
<g>
	<g>
		<path fill="#FFFFFF" d="M142.982,58.505c0,26.929-21.824,48.756-48.755,48.756c-26.926,0-48.755-21.827-48.755-48.756
			c0-26.924,21.829-48.755,48.755-48.755C121.158,9.75,142.982,31.581,142.982,58.505 M94.227,25.978
			c-17.966,0-32.53,14.566-32.53,32.527c0,17.966,14.564,32.528,32.53,32.528s32.527-14.562,32.527-32.528
			C126.754,40.544,112.193,25.978,94.227,25.978"/>
		<path fill="#FFFFFF" d="M94.227,41.794c-9.229,0-16.712,7.485-16.712,16.712c0,9.233,7.483,16.716,16.712,16.716
			c9.231,0,16.714-7.483,16.714-16.716C110.941,49.279,103.458,41.794,94.227,41.794"/>
	</g>
	<polygon fill="#FFFFFF" points="44.941,115.44 44.941,118.75 50.302,118.75 50.302,133.327 54.235,133.327 54.235,118.75 
		59.592,118.75 59.592,115.44 	"/>
	<path fill="#FFFFFF" d="M66.631,119.852h0.05l2.252,6.557h-4.629L66.631,119.852z M64.678,115.44l-6.788,17.885h3.98l1.407-3.986
		h6.687l1.348,3.986h4.087l-6.687-17.885H64.678z"/>
	<g>
		<path fill="#FFFFFF" d="M80.882,118.495h4.306c1.752,0,2.703,0.748,2.703,2.481c0,1.801-0.951,2.549-2.703,2.549h-4.306V118.495z
			 M76.949,133.325h3.933v-6.992h3.93c1.98,0,2.708,0.824,2.983,2.701c0.197,1.429,0.148,3.167,0.623,4.291h3.932
			c-0.696-1.012-0.671-3.117-0.748-4.242c-0.125-1.8-0.678-3.673-2.606-4.179v-0.047c1.979-0.804,2.828-2.385,2.828-4.486
			c0-2.701-2.029-4.931-5.229-4.931h-9.646V133.325z"/>
		<path fill="#FFFFFF" d="M107.454,131.287c-1.371,1.787-3.18,2.464-4.918,2.464c-5.525,0-8.779-4.132-8.779-9.304
			c0-5.307,3.254-9.437,8.779-9.437c3.668,0,7.117,2.257,7.547,6.311h-3.758c-0.448-1.975-1.926-3.001-3.789-3.001
			c-3.521,0-4.851,3.001-4.851,6.127c0,2.988,1.33,5.989,4.851,5.989c2.557,0,4.04-1.38,4.264-3.848h-3.96v-2.938h7.521v9.675
			h-2.504L107.454,131.287z"/>
	</g>
	<polygon fill="#FFFFFF" points="113.048,115.44 113.048,133.325 126.607,133.325 126.607,130.008 116.976,130.008 116.976,125.625 
		125.639,125.625 125.639,122.575 116.976,122.575 116.976,118.75 126.418,118.75 126.418,115.44 	"/>
	<polygon fill="#FFFFFF" points="128.371,115.44 128.371,118.75 133.72,118.75 133.72,133.327 137.656,133.327 137.656,118.75 
		143.014,118.75 143.014,115.44 	"/>
	<g>
		<path fill="#FFFFFF" d="M140.028,130.287c0-1.742,1.413-3.025,3.082-3.025c1.653,0,3.068,1.283,3.068,3.025
			c0,1.758-1.415,3.042-3.068,3.042C141.441,133.329,140.028,132.046,140.028,130.287 M143.11,132.826
			c1.373,0,2.457-1.078,2.457-2.538c0-1.438-1.084-2.522-2.457-2.522c-1.389,0-2.47,1.084-2.47,2.522
			C140.64,131.747,141.721,132.826,143.11,132.826 M142.467,132.046h-0.528v-3.5h1.332c0.827,0,1.236,0.304,1.236,0.994
			c0,0.627-0.394,0.901-0.904,0.966l0.992,1.54h-0.594l-0.922-1.518h-0.612V132.046z M143.101,130.079
			c0.45,0,0.851-0.031,0.851-0.571c0-0.432-0.392-0.513-0.761-0.513h-0.724v1.084H143.101z"/>
	</g>
</g>
</svg>
